<svg xmlns="http://www.w3.org/2000/svg" width="16" height="16" viewBox="0 0 16 16">
  <g id="save-outline" transform="translate(0.5 0.5)">
    <path id="save-outline-2" data-name="save-outline" d="M60,48.338A1.154,1.154,0,0,0,59.189,48H49.667A1.666,1.666,0,0,0,48,49.667V61.333A1.666,1.666,0,0,0,49.667,63H61.333A1.672,1.672,0,0,0,63,61.333V51.811A1.154,1.154,0,0,0,62.662,51ZM55.5,61.269a2.3,2.3,0,1,1,1.633-.675A2.308,2.308,0,0,1,55.5,61.269Zm1.731-8.077H50.308a.577.577,0,0,1-.577-.577V50.308a.577.577,0,0,1,.577-.577h6.923a.577.577,0,0,1,.577.577v2.308A.577.577,0,0,1,57.231,53.192Z" transform="translate(-48 -48)" fill="none" stroke="#fff" stroke-linecap="round" stroke-linejoin="round" stroke-width="1"/>
  </g>
</svg>
