<svg xmlns="http://www.w3.org/2000/svg" width="14" height="14" viewBox="0 0 14 14">
  <path id="noun-edit-684936" d="M121.181,39.244l-.928-.928a1.97,1.97,0,0,0-2.783,0l-8.348,8.349a.435.435,0,0,0-.111.189l-1.237,4.329a.437.437,0,0,0,.421.558.429.429,0,0,0,.12-.017l4.329-1.237a.436.436,0,0,0,.19-.111l8.348-8.348a1.968,1.968,0,0,0,0-2.783Zm-8.887,10.434-3.463.989.99-3.463,6.723-6.723,2.474,2.474Zm8.269-8.269-.928.928-2.474-2.474.928-.928a1.1,1.1,0,0,1,1.547,0l.928.928a1.092,1.092,0,0,1,0,1.546Z" transform="translate(-107.757 -37.741)" fill="#b2b2b2"/>
</svg>
