<?xml version="1.0" ?><svg id="Layer_1" style="enable-background:new 0 0 256 256;" version="1.1" viewBox="0 0 256 256" xml:space="preserve" xmlns="http://www.w3.org/2000/svg" xmlns:xlink="http://www.w3.org/1999/xlink"><g><path d="M97.2,117.2c0.9-1,1.5-2.3,1.4-3.6l-0.1-3.9c0,0,0-0.1,0-0.1c0-2.3-0.4-14.1-1.6-21.7c-0.9-5.3-4.3-9.9-9.2-12.3   c-4.4-2.2-11.1-4.8-16.5-6.7c0.8-1.3,1.5-2.6,2.1-4c3.1-1.5,5.6-4.1,6.9-7.1c1.2-2.2,1.8-4.7,1.8-7.2c0-1.6-0.3-3.3-0.8-4.8   c-0.3-1.3-0.9-2.6-1.7-3.7c0.6-6.9-1.4-13.9-5.7-19.4c-5.4-6.9-13.6-10.9-22.8-11.1l-2.1,0c-9,0.2-17.2,4.3-22.6,11.1   C22.2,28,20.2,35,20.8,42c-0.8,1.1-1.3,2.4-1.7,3.7c-0.5,1.5-0.8,3.2-0.8,4.8c0,2.5,0.6,5,1.6,6.9c1.4,3.3,3.9,5.9,7,7.4   c0.6,1.4,1.3,2.8,2.1,4c-5.6,2-12.2,4.6-16.5,6.7c-4.8,2.4-8.3,7-9.2,12.3c-1.3,7.7-1.6,19.5-1.7,21.8l-0.1,3.9   c0,1.4,0.5,2.7,1.4,3.6c0.9,1,2.2,1.5,3.6,1.5h86.9C95,118.7,96.3,118.2,97.2,117.2z M11.9,108.6c0.1-3.5,0.5-13,1.5-19   c0.4-2.2,1.8-4,3.7-5c5.8-2.9,17-6.9,21.6-8.5c2-0.7,3.4-2.6,3.4-4.8v-0.9c0-1.5-0.6-2.8-1.7-3.8c-2.1-1.8-3.6-4.3-4.4-7.1   c-0.5-1.7-1.8-3-3.5-3.5c-1.4-0.4-2.6-1.4-3.4-3.1c-0.4-0.8-0.6-1.7-0.6-2.6c0-0.6,0.1-1.1,0.3-1.7c0.1-0.2,0.1-0.3,0.1-0.5   c0.1-0.4,0.3-0.8,0.6-1c1.3-1.2,1.9-2.9,1.6-4.7c-0.9-4.9,0.3-10,3.4-13.9c3.5-4.5,8.9-7.1,14.7-7.3l1.8,0c6,0.1,11.4,2.8,14.9,7.3   c3,3.9,4.3,9,3.4,13.9c-0.3,1.7,0.3,3.5,1.6,4.7c0.3,0.3,0.5,0.6,0.6,1c0,0.2,0.1,0.4,0.2,0.6c0.2,0.5,0.3,1.1,0.3,1.6   c0,0.9-0.2,1.8-0.8,2.9c-0.6,1.4-1.8,2.4-3.2,2.8c-1.7,0.5-3,1.8-3.5,3.5c-0.8,2.8-2.3,5.2-4.5,7.1c-1.1,1-1.7,2.3-1.7,3.8v0.9   c0,2.1,1.4,4.1,3.4,4.8c3.5,1.2,15.5,5.4,21.6,8.5c1.9,1,3.3,2.8,3.7,5c0.9,5,1.3,13.1,1.5,19H11.9z"/><path d="M254.3,109.7C254.3,109.7,254.3,109.6,254.3,109.7c-0.1-2.4-0.4-14.2-1.7-21.8c-0.9-5.3-4.3-9.9-9.2-12.3   c-4.4-2.2-11.1-4.8-16.5-6.7c0.8-1.3,1.5-2.6,2.1-4c3.1-1.5,5.6-4.1,6.9-7.1c1.2-2.2,1.8-4.7,1.8-7.2c0-1.6-0.3-3.3-0.8-4.8   c-0.3-1.3-0.9-2.6-1.7-3.7c0.6-6.9-1.4-13.9-5.7-19.4c-5.4-6.9-13.6-10.9-22.8-11.1l-2.1,0c-9,0.2-17.2,4.3-22.6,11.1   c-4.3,5.5-6.3,12.5-5.7,19.5c-0.8,1.1-1.3,2.3-1.7,3.7c-0.5,1.5-0.8,3.2-0.8,4.8c0,2.5,0.6,5,1.6,6.9c1.4,3.3,3.9,5.9,7,7.4   c0.6,1.4,1.3,2.8,2.1,4c-5.6,2-12.2,4.6-16.5,6.7c-4.8,2.4-8.3,7-9.2,12.3c-1.3,7.7-1.6,19.5-1.7,21.8l-0.1,3.9   c0,1.4,0.5,2.7,1.4,3.6c0.9,1,2.2,1.5,3.6,1.5h86.9c1.4,0,2.6-0.5,3.6-1.5c0.9-1,1.5-2.3,1.4-3.6L254.3,109.7z M167.5,108.6   c0.1-3.5,0.5-12.9,1.5-19c0.4-2.2,1.8-4,3.7-5c5.8-2.9,17-6.9,21.6-8.5c2-0.7,3.4-2.6,3.4-4.8v-0.9c0-1.5-0.6-2.8-1.7-3.8   c-2.1-1.8-3.7-4.3-4.4-7.1c-0.5-1.7-1.8-3-3.5-3.5c-1.4-0.4-2.6-1.4-3.4-3.1c-0.4-0.8-0.6-1.7-0.6-2.6c0-0.6,0.1-1.1,0.3-1.7   c0.1-0.2,0.1-0.3,0.2-0.5c0.1-0.4,0.3-0.7,0.6-1c1.3-1.2,1.9-2.9,1.6-4.7c-0.9-4.9,0.3-10,3.4-13.9c3.5-4.5,8.9-7.1,14.7-7.3l1.8,0   c6,0.1,11.4,2.8,14.9,7.3c3,3.9,4.3,9,3.4,13.9c-0.3,1.7,0.3,3.5,1.6,4.7c0.3,0.3,0.5,0.6,0.6,1c0,0.2,0.1,0.4,0.2,0.6   c0.2,0.5,0.3,1.1,0.3,1.6c0,0.9-0.2,1.8-0.8,2.9c-0.6,1.4-1.8,2.4-3.2,2.8c-1.7,0.5-3,1.8-3.5,3.5c-0.8,2.8-2.3,5.2-4.5,7.1   c-1.1,1-1.7,2.3-1.7,3.8v0.9c0,2.1,1.4,4.1,3.4,4.8c3.5,1.2,15.5,5.4,21.6,8.5c1.9,1,3.3,2.8,3.7,5c0.9,5,1.3,13.1,1.5,19H167.5z"/><path d="M174.8,213.8C174.8,213.8,174.8,213.8,174.8,213.8c-0.9-5.3-4.4-9.9-9.2-12.3c-4.3-2.1-10.9-4.7-16.5-6.7   c0.8-1.3,1.5-2.6,2.1-4c3.1-1.6,5.6-4.1,6.9-7.1c1.2-2.2,1.8-4.7,1.8-7.2c0-1.7-0.3-3.3-0.8-4.9c-0.3-1.3-0.9-2.5-1.7-3.6   c0.6-6.9-1.4-13.9-5.7-19.5c-5.4-6.9-13.6-10.9-22.8-11.1l-2.1,0c-9,0.2-17.2,4.3-22.6,11.1c-4.3,5.5-6.3,12.5-5.7,19.5   c-0.8,1.1-1.3,2.3-1.7,3.7c-0.5,1.6-0.8,3.2-0.8,4.8c0,2.5,0.6,5,1.6,6.9c1.4,3.3,3.9,5.9,7,7.4c0.6,1.4,1.3,2.8,2.1,4   c-5.6,2-12.2,4.6-16.5,6.7c-4.8,2.4-8.2,7-9.2,12.3c-1.3,7.7-1.6,19.4-1.7,21.8l-0.1,3.9c0,1.4,0.5,2.7,1.4,3.6   c0.9,1,2.2,1.5,3.6,1.5h86.9c1.4,0,2.6-0.5,3.6-1.5c0.9-1,1.5-2.3,1.4-3.6l-0.1-4C176.4,233.3,176.1,221.5,174.8,213.8z    M89.7,234.6c0.1-3.5,0.5-13,1.5-19c0.4-2.2,1.8-4,3.7-5c5.8-2.9,17-6.9,21.6-8.5c2-0.7,3.4-2.6,3.4-4.8v-0.9   c0-1.5-0.6-2.8-1.7-3.8c-2.1-1.8-3.7-4.3-4.4-7.1c-0.5-1.7-1.8-3-3.5-3.5c-1.4-0.4-2.6-1.4-3.4-3.1c-0.4-0.8-0.6-1.7-0.6-2.6   c0-0.6,0.1-1.1,0.3-1.7c0.1-0.2,0.1-0.3,0.1-0.5c0.1-0.4,0.3-0.8,0.6-1c1.3-1.2,1.9-2.9,1.6-4.7c-0.9-4.9,0.3-10,3.4-13.9   c3.5-4.5,8.9-7.1,14.7-7.3l1.8,0c6,0.1,11.4,2.8,14.9,7.3c3.1,3.9,4.3,9,3.4,13.9c-0.3,1.7,0.3,3.5,1.6,4.7c0.3,0.3,0.5,0.6,0.6,1   c0,0.2,0.1,0.4,0.2,0.6c0.2,0.5,0.3,1.1,0.3,1.6c0,0.9-0.2,1.8-0.8,2.9c-0.6,1.4-1.8,2.4-3.2,2.8c-1.7,0.5-3,1.8-3.5,3.5   c-0.8,2.8-2.3,5.2-4.5,7.1c-1.1,1-1.7,2.3-1.7,3.8v0.9c0,2.1,1.4,4.1,3.4,4.8c4.5,1.6,15.8,5.6,21.6,8.5c2,1,3.3,2.8,3.7,5   c0.9,5,1.3,13.1,1.5,19H89.7z"/><path d="M214.6,131.6c-2.7-0.3-5.2,1.7-5.5,4.5c-2.1,21-12.1,40.1-28.1,53.7c-2.1,1.8-2.4,5-0.6,7.1c1,1.2,2.4,1.8,3.8,1.8   c1.2,0,2.3-0.4,3.3-1.2c18.1-15.4,29.3-36.8,31.6-60.4C219.3,134.3,217.3,131.8,214.6,131.6z"/><path d="M47,136.1c-0.3-2.8-2.8-4.8-5.5-4.5c-2.8,0.3-4.8,2.7-4.5,5.5c2.3,23.6,13.6,45.1,31.6,60.4c0.9,0.8,2.1,1.2,3.3,1.2   c1.4,0,2.8-0.6,3.8-1.8c1.8-2.1,1.5-5.3-0.6-7.1C59.1,176.2,49.1,157.1,47,136.1z"/><path d="M99.6,51.4c0.6,0,1.1-0.1,1.7-0.3c17-6,36.4-6,53.4,0c2.6,0.9,5.5-0.4,6.4-3.1c0.9-2.6-0.4-5.5-3.1-6.4   c-19.2-6.8-41-6.8-60.1,0c-2.6,0.9-4,3.8-3.1,6.4C95.6,50.1,97.6,51.4,99.6,51.4z"/></g></svg>