<svg xmlns="http://www.w3.org/2000/svg" width="550" height="200" xmlns:v="https://vecta.io/nano"><path d="M526.3 151.1c.3-3.3 9-64 9-64h-27.5l-9.7 67.8c-.7 4.1-2.4 6.4-6.6 6.4h-17.8V87.1h-.2-27.2-.2v67.7c0 4.2-2.2 6.4-6.5 6.4h-21.8V87.1h-27.5v91.3c0 6.5 6.4 6.5 6.4 6.5h94.8c22.7-.1 32.3-8.7 34.8-33.8m-192.2-64h-38.4c-30 0-36.5 27-36.5 48.1 0 20.8 6.4 49.6 36.5 49.6h38.4c30 0 36.5-28.8 36.5-49.6 0-21.2-6.4-48.1-36.5-48.1zm-2.4 74.2h-33.6c-11.1 0-12.2-14.8-12.2-25.7 0-11.2 1.3-24.9 12.2-24.9h33.6c10.9 0 12.2 13.7 12.2 24.9 0 10.9-1.1 25.7-12.2 25.7zm-90.6-33.7v-9.2c0-20.9-10.4-31.3-31.3-31.3h-44.9c-22.7 0-33.9 11.1-33.9 33.4v64.4h27.4v-68.2c0-4.1 2.3-6.2 6.6-6.2h42.4c6.5 0 9.9 3.5 9.9 10.3v4.4c0 7.5-3.4 11.2-9.9 11.2h-34l30.3 48.5H236c-2.6-3.9-9.6-15.1-16.3-25.8 14.8-3.9 21.4-15.6 21.4-31.5zm-139.6-17.1l10.2-23.6H48c-23.8 0-33.2 21.4-33.2 39.8v16c0 19 9.4 42.1 33.2 42.1h65.8v-23.6H51.3c-7.8 0-9.3-8.8-9.3-18.5v-16c0-8.9 1.8-16.2 9.2-16.2h50.3z" fill="#009fe3"/><path d="M43 69.5h75.2L128.4 46H51c-22.1 0-31.8 18.5-33 35.9 5.3-7.3 13.5-12.4 25-12.4zm111.711-.5V45.687h11.058V69h7.239V39.93h-18.297v-.684c0-4.218 3.534-4.731 5.586-4.731a9.17 9.17 0 0 1 1.482.114v-6.156s-.969-.171-2.451-.171c-4.047 0-11.856 1.254-11.856 10.773v.855h-3.591v5.757h3.591V69h7.239zm18.24-34.029V28.53h-7.182v6.441h7.182zm21.603 34.713c7.239 0 11.685-4.161 11.685-4.161l-2.793-5.187s-3.705 3.192-8.379 3.192c-4.332 0-8.265-2.622-8.721-7.695h20.064s.171-1.938.171-2.793c0-7.695-4.503-13.794-12.882-13.794-8.664 0-14.763 6.27-14.763 15.219 0 8.265 5.985 15.219 15.618 15.219zm4.731-18.81h-12.711c.684-3.762 3.249-6.042 6.954-6.042 3.192 0 5.643 2.109 5.757 6.042zm26.619 18.411c1.368 0 2.223-.171 2.223-.171v-6.327s-.513.114-1.311.114c-1.995 0-5.757-.684-5.757-5.472V46.143h6.612v-5.757h-6.612v-8.379h-7.068v8.379h-3.933v5.757h3.762v12.198c0 9.747 8.037 10.944 12.084 10.944zm16.986.399c6.897 0 11.115-3.876 11.115-8.721 0-9.348-14.136-8.835-14.136-12.939 0-1.824 1.824-2.622 3.705-2.622 4.446 0 7.125 2.508 7.125 2.508l2.679-5.358-.004-.004-.031-.03c-.361-.351-3.551-3.272-9.712-3.272-6.27 0-11.115 3.135-11.115 8.55 0 9.348 14.136 8.778 14.136 13.11 0 1.71-1.767 2.622-3.819 2.622-4.731 0-7.923-3.192-7.923-3.192l-3.306 5.073s4.047 4.275 11.286 4.275zm32.433 0c7.695 0 13.338-5.985 13.338-15.219 0-9.006-5.016-15.219-12.882-15.219-6.156 0-8.721 4.218-8.721 4.218h-.114s.114-1.026.114-2.451V28.53h-7.239V69h6.84v-1.653c0-1.14-.114-1.995-.114-1.995h.114s2.622 4.332 8.664 4.332zm-1.254-6.099c-4.845 0-7.239-4.446-7.239-8.949 0-6.441 3.534-9.177 7.296-9.177 4.275 0 7.239 3.591 7.239 9.12 0 5.757-3.306 9.006-7.296 9.006zm34.143 6.099c7.239 0 11.685-4.161 11.685-4.161l-2.793-5.187s-3.705 3.192-8.379 3.192c-4.332 0-8.265-2.622-8.721-7.695h20.064s.171-1.938.171-2.793c0-7.695-4.503-13.794-12.882-13.794-8.664 0-14.763 6.27-14.763 15.219 0 8.265 5.985 15.219 15.618 15.219zm4.731-18.81h-12.711c.684-3.762 3.249-6.042 6.954-6.042 3.192 0 5.643 2.109 5.757 6.042zM333.463 69V57.486c0-1.71.171-3.306.627-4.731 1.368-4.332 4.845-6.099 7.923-6.099.969 0 1.71.114 1.71.114v-7.125s-.627-.114-1.311-.114c-4.446 0-7.923 3.306-9.234 7.467h-.114s.114-.969.114-2.052V39.93h-6.954V69h7.239zm22.572.684c6.612 0 8.892-5.13 8.835-5.13h.114l-.001.009-.008.072a19 19 0 0 0-.105 1.971V69h6.669V50.817c0-7.353-4.446-11.571-12.084-11.571-6.897 0-11.4 3.591-11.4 3.591l2.736 5.187.052-.037.091-.063c.73-.499 4.149-2.693 7.837-2.693 3.192 0 5.586 1.311 5.586 5.13v.399h-.969c-4.731 0-17.214.627-17.214 9.861 0 5.814 4.674 9.063 9.861 9.063zm1.824-5.643c-2.964 0-4.389-1.824-4.389-3.762 0-4.047 5.985-4.56 9.69-4.56h1.254v.684c0 3.534-2.736 7.638-6.555 7.638zm28.614 5.643c6.612 0 8.892-5.13 8.835-5.13h.114l-.001.009-.008.072a19 19 0 0 0-.105 1.971V69h6.669V50.817c0-7.353-4.446-11.571-12.084-11.571-6.897 0-11.4 3.591-11.4 3.591l2.736 5.187.052-.037.091-.063c.73-.499 4.149-2.693 7.837-2.693 3.192 0 5.586 1.311 5.586 5.13v.399h-.969c-4.731 0-17.214.627-17.214 9.861 0 5.814 4.674 9.063 9.861 9.063zm1.824-5.643c-2.964 0-4.389-1.824-4.389-3.762 0-4.047 5.985-4.56 9.69-4.56h1.254v.684c0 3.534-2.736 7.638-6.555 7.638zm32.091 5.643c6.669 0 9.12-4.959 9.12-4.959h.114s-.114.798-.114 1.881V69h6.84V28.53h-7.239v12.768c0 .912.057 1.653.057 1.653h-.114s-.006-.011-.019-.033l-.034-.056c-.354-.565-2.533-3.616-8.326-3.616-7.695 0-13.167 5.985-13.167 15.219 0 9.006 5.016 15.219 12.882 15.219zm1.653-6.099c-4.275 0-7.239-3.591-7.239-9.12 0-5.757 3.306-9.006 7.296-9.006 4.845 0 7.239 4.446 7.239 8.949 0 6.441-3.534 9.177-7.296 9.177z" fill="#39404a"/></svg>