<?xml version="1.0" encoding="UTF-8"?>
<svg xmlns="http://www.w3.org/2000/svg" version="1.1" viewBox="0 0 1183.3 231.2">
  <defs>
    <style>
      .cls-1, .cls-2 {
        fill: #00325f;
      }

      .cls-3, .cls-4, .cls-2 {
        fill-rule: evenodd;
      }

      .cls-3, .cls-5 {
        fill: #faaf00;
      }

      .cls-4, .cls-6 {
        fill: #2891e1;
      }

      .cls-7 {
        fill: #e61432;
      }
    </style>
  </defs>
  <!-- Generator: Adobe Illustrator 28.7.1, SVG Export Plug-In . SVG Version: 1.2.0 Build 142)  -->
  <g>
    <g id="Laag_1">
      <g id="Laag_1-2" data-name="Laag_1">
        <g id="Laag_1-2">
          <g>
            <path class="cls-5" d="M173.3,35.3s-9.6-8.4-10.5-13.1c-.9-5.4,4.3-14.5,9.9-22.1,8.5,6.3,17.1,15.2,18.1,20.6.8,4.7-6,14.6-6,14.6h23.2s-9.3-9.2-9.3-13.9S206.1,7.2,213.7,0c7.5,7.2,15,16,15,21.4s-9.2,13.8-9.3,13.9h23.2s-6.8-9.8-6-14.6c.9-5.4,9.6-14.3,18.1-20.6,5.5,7.6,10.8,16.7,9.9,22.1-.8,4.7-10.5,13.1-10.5,13.1h22c-1.4-3.1-5.9-9.5-3.1-15.9,3.4-7.8,19.8-20.6,25.5-19.3-9.5,13.3-13.7,23.8-17.6,35.1,2.3,3.8,2.1,10.6,0,14.2h-134.1c-2.1-3.7-2.3-10.4,0-14.2-3.9-11.3-8.1-21.8-17.6-35.1,5.7-1.4,22.1,11.5,25.5,19.3,2.8,6.4-1.7,12.8-3.1,15.9h22-.3,0Z"/>
            <polygon class="cls-3" points="0 230 72.4 230 72.4 139.7 120.6 230 213.6 230 213.6 59.3 128.9 59.3 128.9 152.3 79.4 59.3 0 59.3 0 230"/>
            <polygon class="cls-4" points="213.6 230 298.3 230 298.3 174.9 347.8 174.9 347.8 230 422.3 230 422.3 59.3 347.8 59.3 347.8 115.1 298.3 115.1 298.3 59.3 213.6 59.3 213.6 230"/>
            <path class="cls-7" d="M185.9,206.8l-.4-.3c-2.3,1.5-4.2,1.4-6.5-.6.5-7,4.3-7.4,10.1-6.2,1,.2,2,.6,3,.6,1.9,0,3.1-1.4,2.7-3.9-.6-3.7-.8-6-.9-8.2-4.7,1-10.1-1.1-14.3,2.2l-.4.3c-6-8.8-6.7-25.1,2.4-32.8-.6-1.6-2.6-3.7-5-6.2-2.3-2.3-4.7-4.8-6.4-7.6,1.1-6.3,8.9-11.2,16.5-16.8-2.4,7.3-1.2,12,2.5,18.9,1.5,2.7,3.1,5.2,4.3,7.4,1.2,2.1,1.6,4.2,1.5,6,1.1,1.8,4.1,5.8,6.5,5.8s2.6-1.3,2.6-3c0-9.7-14.3-16.3-14.3-28.6s5.4-12.7,10.5-12.7,6.8,3.7,5.8,6.9c3.5,1.5,2.6,5.2,1.8,8.4-1.2,4.8-1.1,7.6,1.3,13.6-2-.2-6.5-6.4-8.7-11.3-2-4.7-2.8-10.3,2-10.7.4-1.5-1-2.8-2.4-2.8-3.6,0-5.9,3.2-5.9,8.4,0,10.5,15,17,15,28.9s-4.1,8.6-7.8,8.6-5.2-1.6-6.9-3.7c-.5,7.8,5.2,10.3,12.3,9.6-1.6,6.8-1.2,17.8.8,24.6-2.6.7-5.8,3.2-6.4,6,1.4,2.3,1.9,5,0,7.5-3.3.8-6.1-2.8-7.4-5.9l-.7-.2c-2.1,2.4-4.5,6.3-7.9,5.5-.5-.7-1.7-5.8.7-7.8"/>
            <path class="cls-4" d="M174.9,208.9c-.4-1.1,2.2-6.1,5-6.1s2.2,4,1.4,4.5c-.4.2-3.6-.2-6.5,1.5"/>
            <path class="cls-4" d="M185.4,219.6c-1.2-.5-3-6.6-.9-8.9,1.4-1.5,4.8,2.7,3.9,3.3-2.3,1.5-2.7,5.3-3.1,5.6"/>
            <path class="cls-4" d="M200.5,221.1c1,0,3.6-4.1,1.7-7.9-.7-1.4-5.7,0-4.8,1.1,1.3,1.6,3.4,4.2,3.1,6.8"/>
            <path class="cls-7" d="M156.9,117.4c-1.6-5.1-2.6-12-7.4-13.4,2.5-3-.2-7.4-.7-7.1-2.5,1.7-5.8,2.7-8,.4-.5-3.5,2.4-5.4,5.2-6.3v-.4c-2.6-1.5-4.6-4.8-3.7-8,2.3-1.5,5.1-.8,6.8.8l.3-.3c-1.2-2.5-3-6.5-.7-8.4,1.8-1.3,9.1-1.3,6.8,7.1-1,3.7-1,6,.9,8.9,1.4,2.1,7.8,10.5,10.6,13.3-.4.2-.8.5-1.1.8-4.2,2.9-8,6.9-8.9,12.7"/>
            <path class="cls-4" d="M144.2,71.8c3.1-.7,7.9,1.4,7.6,3.5-.2,1.8-4.3,2.1-4.3,1.6-.3-1.8-2.9-3.3-3.3-5.1"/>
            <path class="cls-4" d="M137.1,83.7c1.1-1.5,6.2-3.5,8.1-1.1,1.3,1.7-2.3,5.1-2.6,4.4-1.2-2.5-4-2.1-5.5-3.4"/>
            <path class="cls-4" d="M136.8,95.7c-.4.4-.3,4.3,6.2,2.9,1.4-.3.1-5.4-1.5-4.7-.5.2-3,3-4.7,1.8"/>
            <path class="cls-6" d="M184.3,94.8c-1.6-1.6-4-2-6.3-2-3.6,0-6.3,1.8-9.5,2-3,0-5-1.1-6-2.9-1.2-2.2-.5-5.9,2.1-6.7-.7,2.6.2,6.4,5.1,6.4s4.8-.8,8.1-.8,5.9,1.4,7.1,2.9l-.6,1.1h0Z"/>
            <path class="cls-7" d="M174.7,95.5l.2-.5c6.5,3.4,11.3,0,9.3-6.5-2.9-2.2-7.9-.2-9.9.6-1.3-2.2-2.2-5.6-2.3-8.2,3.5-5,23.3-11,27.7-12.6.4,1.6-.4,4.4-1.1,6,2.3-.9,5.3-1.4,7.5-.8.2,3.4-.4,6.6-3.1,10.2,1.8,1.5,3.4,5.5,3.4,10.3,0,7.1-3.3,12.3-5.1,18.8-.6,2.2-.8,3.7-.6,5.9-2.4-1.3-3.8-3.6-4.7-6-1.5,3.7-5.8,7.9-10.4,11.3-8.4,6.2-18.5,12.6-18.2,19.8-2-1.8-3.3-4.4-4.1-6.7-5.3,4.1-5.2,3.2-7.1,10.5-.5-1-2-3-3.5-2.9-1.1,2.3-3,4.7-6,4.2-2.4-2.7-.9-7.1,1.2-8.7l-.2-.4c-2.6.4-6.9-.9-7.8-3.9.4-2.7,4.1-3.6,6.1-3.5v-.5c-2.6-.9-5.2-4.2-5.9-6.4,2.9-5.9,7.5-3.5,10,.8,1.6,2.8,2.3,3.3,4.2,3,1.7-.2,3.5-2.3,5.2-3.9-1.7-9.4,3.3-15.2,8.8-19,5.1-3.5,14.8-5.5,14.5-7.2-2.8.4-6.1.2-7.5-.8-1.5-1-1.3-2-.7-3.3"/>
            <path class="cls-3" d="M188,76.5c-2.6.9-5.7,2-8.2,3.2,2.2,1,4.5,1.7,5.7,1.4,1.5-.4,1.7-3,2.5-4.7"/>
            <path class="cls-4" d="M135.6,125.7c.7-1.3,5.9-4.1,7.9-1.9,1.4,1.5-1.6,5.1-2,4.4-1.4-2.3-4.3-1.8-5.9-2.5"/>
            <path class="cls-4" d="M141.6,148.7c-.2.8,2.6,3.8,7.3.2,1.4-1.1-2-5.2-3.2-3.8-.6.8-1.3,3.2-4.1,3.6"/>
            <path class="cls-4" d="M136,140.3c0-1.7,3.7-7,6.2-6.1,2,.7,1.5,5.3.5,4.8-2.4-1.2-5.2,1.3-6.7,1.3"/>
            <path class="cls-7" d="M152.7,160.5c4.5-7.6,13.9-9.5,23.1-5.8,1.1,1.2,1.8,2.2,2.2,3.1-6.9,5.8-8.1,16.5-5.8,25.2-3.9,2.7-7.5,4.9-10.3,9.1-2.2-2.1-3.7-.9-5-.1,0,2.8-1.5,7.3-4.9,6.9-3.1-2.2-2.7-7.5-1.6-10l-.4-.5c-2.8,1.1-6.8.8-8.8-1.8.7-2.9,3.3-4.7,5.4-5.1v-.4c-2.6-.6-3.3-3.3-3.9-5.4,1.2-1.3,2.6-2,4.6-2,3.6,0,5.3,2.1,6.6,4.2.5.8,1.5,3.7,2.7,3.7,3.3,0,4.8-3.2,5.6-4.9-4.1-3.4-9.1-10.7-9.2-16.2"/>
            <path class="cls-4" d="M137.8,176.1c.2-1,5.5-3.1,7.7-1.4,1.3,1.1-.4,4-1.7,4.1-.5,0-3.3-2.4-6-2.7"/>
            <path class="cls-4" d="M138,191.1c-.6-1,1.5-6.9,4.5-7,2.1-.1,2.5,4.5,1.6,4.5-2.7,0-5.3,2.3-6,2.5"/>
            <path class="cls-4" d="M147.3,202.1c.5.4,7,0,7.3-4.5.1-2.3-4.7-3.8-4.6-1.8,0,2.1-.7,4.8-2.7,6.3"/>
            <rect class="cls-5" x="223.6" y="68.4" width="18.3" height="6.7"/>
            <rect class="cls-5" x="263.9" y="68.4" width="18.3" height="6.7"/>
            <rect class="cls-5" x="223.6" y="141.1" width="18.3" height="6.7"/>
            <rect class="cls-5" x="263.9" y="141.1" width="18.3" height="6.7"/>
            <rect class="cls-5" x="221" y="214.5" width="18.3" height="6.7"/>
            <path class="cls-5" d="M229,107.8c-1.1-1.2-1.2-2.2-1.6-3.9-.4-1.7-.9-3.9-3.1-6.7-2.1,1-3.4.9-5.3,0,1.8-1.7,3-3.3,3.4-4.2-1.5-.5-3.3-1.4-4.4-2.2,1.1-1.7,2.8-2.4,4.7-2.9-1.3-1.4-2.3-3.1-3.1-4.6,5.4-2.1,7.9,1.1,8.2,6.6,0,1.1.9,2.1,1.5,2.9s1.8,2,2.7,3.1l-.3,2.3c-.4,3.4-1,7.3-2.9,9.7"/>
            <path class="cls-5" d="M233.2,114.9c-3.4,1.6-6.5,1.1-7.8-1.5,7.1-1.2,8.7-7.8,9.4-13.8.4-3.6.8-6.8,1.1-9.7.2-2.4.5-4.6,1-5.9-1.5-1.7-1-4.7-1.1-6.4,2.1,0,4.5,1.1,6,2.6,1.8-.5,4.7-.6,6.8,0,1.7-1.9,4.7-2.5,7-2.2-1.2,1.8-1,4.1-2.1,5.5,1.6,3.7,1.8,12.5,2.3,16.8-.8,6.8-6.8,12.6-11.7,16.3,0,1,.4,2,.3,3.1-1.6,2.5-3.2,3.4-5.4,5.1-1.8,1.4-4,3.3-6,7.4,1.1,3-.2,5-3.1,6.2-.2-1.4-.4-3.8-1.8-4.6-1.1,1.4-2.8,2.7-4.7,2.8-.7-1.6-.6-3.5,0-5-1.6.4-3.3.7-4.9,0,.9-5.6,4.3-5.5,8.5-5.6.4,0,1.4,0,1.7-.3,2-1.9,4.6-10.8,4.6-10.8"/>
            <path class="cls-5" d="M265.3,130.3c-2.4,2-4.9,3.1-7.7,4.3-.2,1.4-.8,2.9-2.1,3.4-.7-1-1.8-3.1-2.7-3.8-.4,2.1-1.8,3.9-3.3,5.2-1.6-.9-2.1-3.2-2-4.7-1.3,1-2.9,1.8-4.3,2.3-1.3-6.9,5.1-9.1,10.1-7.7,1.3-.6,2.6-1.3,3.6-1.9-1.2-1.4-2.3-3.8-1.8-5.6,2.7-.8,6.8-5.3,9.9-6,.2,1.9,1.3,4.2,2.4,5.9-3.2,1.9-3,6.2-2,8.7"/>
            <path class="cls-4" d="M251,84.4c.4,1.1-3.2,3.5-3.9,4-.2-1.2-.3-2.7-.1-2.9.3-.4,3.1-.8,4-1.1"/>
            <path class="cls-6" d="M243.2,97c-1.9-.6-1.9-2.6-1.9-4,.8-.2,1.9.3,2.9.3-.1-1.4-1-2.1-1.9-2.7,0-.3.2-.7.3-.9,1.9.3,2.7.3,4.6.2.1.3.2.7.3.9-.9.6-2.2,1.1-2.3,2.5,1.2,0,2.4-.3,3.1,0,0,1.5-.1,3.3-2.1,3.9.7,3.3-.8,5.8-1.7,6.2-1-.6-2.1-3.1-1.3-6.3"/>
            <path class="cls-5" d="M233.5,188.5c-3.4,1.6-6.7.9-8.1-1.8,10.9-1.8,8.6-16.3,10.7-24.5.6-2.3,1.2-4.4,1.9-5.7-1.2-1.7-.2-5.3-.1-6.5,2,.4,4.3,1.8,5.6,3.6,1.8-.2,4.7.2,6.7,1.1,2-1.6,5.1-1.9,7.3-1.2-1.4,1.6-1.9,4.3-3,5.2,1.2,4.3.7,10.4,1.2,15-.8,6.8-6.8,12.6-11.7,16.3,0,1,.4,2,.3,3.1-1.6,2.5-3.2,3.4-5.4,5.1-1.8,1.4-3.9,3.3-5.9,7.2.9,3.2-.2,5.2-3.2,6.4-.2-1.4-.4-3.8-1.7-4.6-1.3,1.4-2.8,2.7-4.8,2.8-.7-1.6-.6-3.5,0-5-1.7.4-3.3.7-4.9,0,.9-5.6,4.3-5.5,8.5-5.6.4,0,1.4,0,1.7-.3,2-1.9,4.8-10.5,4.8-10.5"/>
            <path class="cls-5" d="M262.6,203.9c-2.3,1.8-3.2,2.5-5.8,4,0,1.4-.6,3.4-2.1,3.9-.6-1.2-1.9-3.5-2.9-4.3-.5,2.1-1.8,3.9-3.3,5.2-1.6-.9-2-3-2.1-4.8-1.3.9-2.8,1.8-4.3,2.3-1.5-6.1,4.8-8.6,9.9-7.3,1.1-.3,2-1,3-1.7-1.5-1.9-2.1-4.1-1.5-6.4,3.5-1.4,6.9-5.4,10.4-5.6-.3,1.9-.3,4.6.2,5.9-1.6,1.4-3.3,5.8-1.6,8.8"/>
            <path class="cls-5" d="M228.9,181c-1-1.1-1.1-2.1-1.5-3.8s-.9-3.9-3.1-6.7c-2.1,1-3.4.9-5.3,0,.8-.9,2.9-3.3,3.4-4.3-1.5-.4-3-1.2-4.4-2.1,1.1-1.7,2.9-2.4,4.9-2.9-1.1-1.3-2.5-3-3.4-4.5,5-2.5,8.1,1.3,8.5,6.8,0,.8.5,1.4.9,2l.5.6c.6.8,1.7,1.9,2.7,3-.4,4.4-1.1,9.2-3.2,11.9"/>
            <path class="cls-4" d="M239.2,84.5c-.4,1.1,3.1,3.4,3.8,4,.2-1.2.3-2.7.1-2.9-.3-.4-3-.8-3.9-1"/>
            <path class="cls-5" d="M267.4,185.5c-6.7.5-13.3,8-20.1,5.7,4.8-3.6,10.5-9.3,11.2-15.8,2.5.7,3.7.2,6.5-.2,3-.5,6.7-1,10.2,1.5,3.9.6,7.2-1.6,7.2-3.9s-1.7-3.1-3.8-3.1c-4.4,0-8.1,2.2-12.6,2.2s-8-3-8-9,5.6-9.4,10.7-7.9c1.9-4,6.3,0,11.8,0s4.7-.8,7.1-3c.7,2.5-2.1,5.7-6.6,7.7-5.9,2.6-13.6,3.2-13.3-1.2-2.7-1.1-5.7,1.1-5.7,4.2s1.6,4.6,4,4.6c4.2,0,8-2,12.9-2s7.9,1.6,7.9,7.3-6.3,8.5-9.5,8.6c.4,4.8,2.2,6.1,6.4,6.5.2,4.4-1.5,9.4-3.2,13.4.9,1.6,1.2,2.8,1,5.1-1.4-.3-2.9-.9-4-1.7-.6,2-2.1,4.3-4.1,5.4-1.3-.4-1.9-1.9-2.4-3.2-1.1,1-3.1,2.2-4.7,2-1.7-5.1,2.2-8.4,6.7-8.6.8-1.5,2.1-4,1.8-5.8-2.5.7-4.1,1.8-5.9,3.8-1.7-1.7-2.1-4.5-2.1-6.9s.3-3.9.4-5.7"/>
            <path class="cls-4" d="M251.8,159.5c.3,1.2-3.7,2.9-4.5,3.3,0-1.2,0-2.7.3-2.9.3-.3,3.2-.3,4.1-.4"/>
            <path class="cls-6" d="M242.1,170.8c-1.8-.9-1.5-2.7-1.3-4.2.9-.1,1.8.7,2.9.8.2-1.3-.8-2.3-1.5-3.1.2-.3.3-.6.5-.9,1.8.6,2.6.7,4.5.9,0,.3.1.7.1,1-1,.4-2.3.8-2.7,2.2,1.3.3,2.4,0,3.1.5-.3,1.5-.7,3.4-2.7,3.4-1.2,2.8,0,4.6-.6,6-1.9-.9-3.6-3.4-2.2-6.5"/>
            <path class="cls-4" d="M240.1,157.7c-.6,1,2.5,3.9,3.1,4.5.4-1.2.7-2.6.6-2.9-.2-.4-2.9-1.3-3.7-1.6"/>
            <path class="cls-5" d="M267.4,112.1c-6.6.4-13.3,7.9-20,5.7,4.8-3.7,10.3-9.3,11-15.7v-.2c2.5.8,3.7.2,6.6-.2,3-.5,6.4-.9,10.1,1.3,3.9.6,7.2-1.6,7.2-3.9s-1.7-3.1-3.7-3.1c-4.4,0-8.1,2.2-12.6,2.2s-8-3-8-9,5.6-9.4,10.7-7.9c1.9-4,6.4,0,11.9,0s4.7-.8,7.1-3c.7,2.5-2.1,5.7-6.6,7.7-5.9,2.6-13.7,3.3-13.3-1.1-2.7-1.1-5.7,1.1-5.7,4.2s1.6,4.6,4,4.6c4.2,0,8-2,12.9-2s7.9,1.6,7.9,7.3-5.4,8.1-8.8,8.5h-.8c.7,5,7.2,5.9,11,6.2.2,4.6-1.9,9.7-3.7,13.8.9,1.7,1,3.1.9,5.1-1.4-.3-2.7-.9-3.9-1.7-.6,2.1-2.2,4.5-4.1,5.4-1.3-.4-2-2-2.4-3.2-1.4,1.1-2.9,2.3-4.7,2-1.7-5.1,2.4-8.6,6.7-8.6.6-1.1,2.8-4.6,2.4-6-1.9.2-4.2,1.2-6,3.4l-.5.7c-2.8-2.8-5.6-8.5-5.6-12.7"/>
            <polygon class="cls-2" points="473 230 483.7 230 483.7 179.6 483.3 171.7 516.2 230 531.2 230 531.2 159.3 520.3 159.3 520.3 210 520.7 218.6 487.1 159.3 473 159.3 473 230"/>
            <path class="cls-2" d="M572.8,231.2c15,0,26.1-9.5,26.1-28.5s-8.2-28.7-25.4-28.7-26.1,10.6-26.1,29.3,9.4,27.9,25.4,27.9M573.4,222.7c-11.7,0-15.4-9.1-15.4-19.9s3.2-20.4,15.2-20.4,15.1,10.6,15.1,20.3-3,20-14.9,20"/>
            <path class="cls-2" d="M635.3,231.2c15,0,26.1-9.5,26.1-28.5s-8.2-28.7-25.4-28.7-26.1,10.6-26.1,29.3,9.4,27.9,25.4,27.9M635.9,222.7c-11.7,0-15.4-9.1-15.4-19.9s3.2-20.4,15.2-20.4,15.1,10.6,15.1,20.3-3,20-14.9,20"/>
            <path class="cls-2" d="M676,230h10.4v-39.2c2.5-3.6,7.5-7.6,13.6-7.6s4.6.2,6.7.7l1.6-8.8c-1.3-.4-3.5-.9-6.7-.9-7.3,0-12.6,4.6-15.2,8.5v-7.3h-10.4v54.6h0Z"/>
            <path class="cls-2" d="M737.3,230.9c6.2,0,10.5-3.1,13.4-5.8v4.9h10.4v-75.4h-10.4v20.6c-3.2-.9-5.3-1.2-9.8-1.2-14.8,0-27,9.6-27,28.6s13.2,28.3,23.4,28.3M738.7,222.2c-8.2,0-14.3-5.4-14.3-19.3s4.6-20.5,16.6-20.5,7.4.8,9.7,1.5v33.4c-2.3,1.5-7.4,4.9-12,4.9"/>
            <rect class="cls-1" x="774" y="197" width="29.8" height="8.7"/>
            <polygon class="cls-2" points="818.4 230 829.1 230 829.1 198.8 865.4 198.8 865.4 230 876.1 230 876.1 159.3 865.4 159.3 865.4 190.2 829.1 190.2 829.1 159.3 818.4 159.3 818.4 230"/>
            <path class="cls-2" d="M917.7,231.2c15,0,26.1-9.5,26.1-28.5s-8.2-28.7-25.4-28.7-26.1,10.6-26.1,29.3,9.4,27.9,25.4,27.9M918.3,222.7c-11.7,0-15.4-9.1-15.4-19.9s3.2-20.4,15.2-20.4,15.1,10.6,15.1,20.3-3,20-14.9,20"/>
            <rect class="cls-1" x="958.4" y="154.6" width="10.4" height="75.4"/>
            <rect class="cls-1" x="987.1" y="154.6" width="10.4" height="75.4"/>
            <path class="cls-2" d="M1027.8,230.8c9.4,0,15-4.7,18-6.8.9,4.8,6.6,6.6,11.7,6.6s1.5,0,2.2,0l.5-8.1c-2.6-.2-5-.9-5-4.3v-28.6c0-11.2-7.2-15.4-20.7-15.4s-15.3,2.1-18.8,3.6l2.1,7.9c3.2-.8,9.2-2.5,14.4-2.5,8.8,0,12.8,1.6,12.8,9.2v6.1l-12,.2c-9.5,0-21.7,3-21.7,16.5s6.1,15.7,16.5,15.7M1030.3,222.5c-5.2,0-8.8-2.1-8.8-8.3s4.3-8.4,11.8-8.6l11.7-.5v12.6c-2.1.9-8.9,4.8-14.7,4.8"/>
            <path class="cls-2" d="M1075.5,230h10.4v-41.2c3.9-2.3,9.7-5.7,15.6-5.7,8.8,0,10.2,4.6,10.2,13.5v33.4h10.3v-34.9c0-10.3-1-21.1-17.4-21.1s-14.1,4.2-18.7,7.4v-6h-10.4v54.6Z"/>
            <path class="cls-2" d="M1159.5,230.9c6.2,0,10.5-3.1,13.4-5.8v4.9h10.4v-75.4h-10.4v20.6c-3.2-.9-5.3-1.2-9.8-1.2-14.8,0-27,9.6-27,28.6s13.2,28.3,23.4,28.3M1160.9,222.2c-8.2,0-14.3-5.4-14.3-19.3s4.6-20.5,16.6-20.5,7.4.8,9.7,1.5v33.4c-2.3,1.5-7.4,4.9-12,4.9"/>
            <path class="cls-2" d="M473,130h10.8v-62.1h11.3c10.6,0,15.2,5.1,15.2,14.8s-6.6,14.7-17.6,14.7h-4.4v8.7h3.8c19.9,0,29.4-10.8,29.4-23.8s-9.6-23-24.2-23h-24.3v70.7Z"/>
            <path class="cls-2" d="M533,130h10.4v-39.2c2.5-3.6,7.5-7.6,13.6-7.6s4.6.2,6.7.7l1.6-8.8c-1.3-.4-3.5-.9-6.7-.9-7.3,0-12.6,4.6-15.2,8.5v-7.3h-10.4v54.6h0Z"/>
            <path class="cls-2" d="M596.3,131.2c15,0,26.1-9.5,26.1-28.5s-8.2-28.7-25.4-28.7-26.1,10.6-26.1,29.3,9.4,27.9,25.4,27.9M596.9,122.7c-11.7,0-15.4-9.1-15.4-19.9s3.2-20.4,15.2-20.4,15.1,10.6,15.1,20.3-3,20-14.9,20"/>
            <polygon class="cls-2" points="648.2 130 661.9 130 681.9 75.4 671.1 75.4 659 110.4 655.3 122 652 110.6 641.2 75.4 629.9 75.4 648.2 130"/>
            <path class="cls-2" d="M693.1,130h10.5v-54.6h-10.5v54.6ZM698.2,66.4l8-8-8-7.9-7.8,7.9,7.8,8Z"/>
            <path class="cls-2" d="M721.8,130h10.4v-41.2c3.9-2.3,9.7-5.7,15.6-5.7,8.8,0,10.2,4.6,10.2,13.5v33.4h10.3v-34.9c0-10.3-1-21.1-17.4-21.1s-14.1,4.2-18.7,7.4v-6h-10.4v54.6h0Z"/>
            <path class="cls-2" d="M811.4,131c5.7,0,10.1-1.1,13.2-1.9l-1.6-8.2c-2.8.4-6.3,1.4-10.8,1.4-15,0-19.1-6.3-19.1-19.9s6.9-19.7,16.2-19.7,9.3,1.2,12.6,2.6l3-8c-3.3-1.7-8-3.3-15.6-3.3-16.5,0-26.9,11-26.9,28.5s8.5,28.5,29,28.5"/>
            <path class="cls-2" d="M837.9,130h10.5v-54.6h-10.5v54.6ZM843,66.4l8-8-8-7.9-7.8,7.9,7.8,8Z"/>
            <path class="cls-2" d="M889.9,131.2c8.3,0,15.2-1.6,18.2-2.6l-1.7-8.3c-3.4.8-10.2,2.2-14.1,2.2-10.6,0-18.6-2.4-18.8-17.3h35.9v-3.7c0-17.7-6.3-27.5-20.9-27.5s-25.5,7.5-25.5,29.6,10.5,27.6,26.9,27.6M873.7,97.9c.8-10.7,6.1-16.3,13.6-16.3s11.3,6.6,11.2,16.3c0,0-24.8,0-24.8,0Z"/>
          </g>
        </g>
      </g>
    </g>
  </g>
</svg>