<svg id="Group_447" data-name="Group 447" xmlns="http://www.w3.org/2000/svg" xmlns:xlink="http://www.w3.org/1999/xlink" width="8.876" height="15.607" viewBox="0 0 8.876 15.607">
  <defs>
    <clipPath id="clip-path">
      <rect id="Rectangle_118" data-name="Rectangle 118" width="8.876" height="15.607" transform="translate(0)" fill="#0037c5"/>
    </clipPath>
  </defs>
  <g id="Group_421" data-name="Group 421" transform="translate(0 0)" clip-path="url(#clip-path)">
    <path id="Path_90" data-name="Path 90" d="M6.549,123.768a.518.518,0,0,1-.465-.288l-1.814-3.667L2.85,118a.518.518,0,0,1-.038-.056,2.877,2.877,0,0,1-.4-1.463v-3.436a6.105,6.105,0,0,0-1.376,1.793v2.287a.518.518,0,0,1-1.036,0v-2.412a.518.518,0,0,1,.055-.232,9.4,9.4,0,0,1,.8-1.285A2.844,2.844,0,0,1,2.93,111.78h.508a1.82,1.82,0,0,1,1.82,1.82v5.873l1.755,3.548a.518.518,0,0,1-.464.748m-2.861-6.381.534.682V113.6a.785.785,0,0,0-.774-.784v3.662a1.84,1.84,0,0,0,.24.908M1.9,123.64a.518.518,0,0,1-.427-.81L3.2,120.293a.518.518,0,1,1,.856.584l-1.731,2.537a.518.518,0,0,1-.428.226m6.46-6.6a.516.516,0,0,1-.284-.085l-2.14-1.406a.518.518,0,0,1,.569-.866l2.14,1.406a.518.518,0,0,1-.285.951" transform="translate(0 -108.161)" fill="#0037c5"/>
    <path id="Path_91" data-name="Path 91" d="M94.884,3.448a1.724,1.724,0,1,1,1.724-1.724,1.726,1.726,0,0,1-1.724,1.724m0-2.412a.688.688,0,1,0,.688.688.689.689,0,0,0-.688-.688" transform="translate(-90.144 0)" fill="#0037c5"/>
  </g>
</svg>
