<svg xmlns="http://www.w3.org/2000/svg" width="25" height="12.529" viewBox="0 0 25 12.529">
  <g id="Group_290" data-name="Group 290" transform="translate(0 -11.924)">
    <path id="Path_2" data-name="Path 2" d="M24.973,19.123a3.774,3.774,0,0,0-1.821-2.409c-.754-.432-.994-.4-4.682-1.072-4.37-4.365-2.575-3.678-11.321-3.678A2.082,2.082,0,0,0,5.343,13c-1.837,3.22-1.041,2.539-3.834,3.335a2.081,2.081,0,0,0-1.509,2v1.946a2.081,2.081,0,0,0,2.081,2.081H3.694a2.6,2.6,0,0,0,5.1,0H16.18a2.6,2.6,0,0,0,5.1,0h2.133a1.561,1.561,0,0,0,1.561-1.561h0A13.018,13.018,0,0,0,24.973,19.123Zm-2.227-1.436a2.6,2.6,0,0,1,.942,1.041h-.8a.525.525,0,0,1-.146-1.041Zm-5.791-2.081H12.486V13C14.635,13,14.375,13,16.955,15.606ZM11.446,13v2.6H7.554L8.668,13ZM1.795,17.343l.286-.078a1.04,1.04,0,0,1-1.041.942A1.04,1.04,0,0,1,1.795,17.343ZM6.243,23.41A1.561,1.561,0,1,1,7.8,21.849,1.561,1.561,0,0,1,6.243,23.41Zm12.486,0a1.561,1.561,0,1,1,1.561-1.561A1.561,1.561,0,0,1,18.73,23.41Zm4.682-2.081H21.279a2.6,2.6,0,0,0-5.1,0H8.792a2.6,2.6,0,0,0-5.1,0H2.081a1.04,1.04,0,0,1-1.041-1.041V19.247a2.081,2.081,0,0,0,2.09-2.072,1.963,1.963,0,0,0-.009-.207c1.644-.468,1.384-.39,3.122-3.444a1.041,1.041,0,0,1,.9-.52h.385c-.91,2.133-1.259,2.554-.848,3.174a1.04,1.04,0,0,0,.869.468c12.512,0,9.448-.213,14.089.635a1.561,1.561,0,0,0,1.254,2.487h1.041v1.041A.52.52,0,0,1,23.412,21.328Z" transform="translate(0)" fill="#AFAFAF"/>
    <path id="Path_3" data-name="Path 3" d="M35.151,30.148a.52.52,0,1,0,.373-.154A.52.52,0,0,0,35.151,30.148Z" transform="translate(-16.791 -8.669)" fill="#AFAFAF"/>
    <path id="Path_4" data-name="Path 4" d="M11.151,30.148a.52.52,0,1,0,.739,0,.52.52,0,0,0-.739,0Z" transform="translate(-5.277 -8.669)" fill="#AFAFAF"/>
    <path id="Path_5" data-name="Path 5" d="M25.561,23H24.52a.52.52,0,0,0,0,1.041h1.041a.52.52,0,0,0,0-1.041Z" transform="translate(-11.514 -5.313)" fill="#AFAFAF"/>
  </g>
</svg>
