<svg id="crow_aanbod" data-name="crow aanbod" xmlns="http://www.w3.org/2000/svg" width="15.942" height="25" viewBox="0 0 15.942 25">
  <path id="crow_aanbod-2" data-name="crow aanbod" d="M22.333,32a1.812,1.812,0,1,1,1.812-1.812A1.812,1.812,0,0,1,22.333,32Zm-6.884-6.884A1.449,1.449,0,1,1,16.9,23.667,1.449,1.449,0,0,1,15.449,25.116ZM28.493,27.29a1.449,1.449,0,1,1,1.449-1.449A1.449,1.449,0,0,1,28.493,27.29ZM22.7,14.77a2.193,2.193,0,0,1-2.264-2.113,2.27,2.27,0,0,1,4.529,0A2.193,2.193,0,0,1,22.7,14.77Zm0,8.487c-1.687,0-6.159-7.553-6.159-10.442A5.994,5.994,0,0,1,22.7,7a5.994,5.994,0,0,1,6.159,5.814C28.855,15.7,24.383,23.257,22.7,23.257Zm.046-1.568a6.456,6.456,0,0,0,.671-.734,22.835,22.835,0,0,0,1.761-2.6c1.335-2.254,2.232-4.433,2.232-5.543A4.548,4.548,0,0,0,22.7,8.449a4.548,4.548,0,0,0-4.71,4.365c0,1.112.9,3.29,2.232,5.543a22.85,22.85,0,0,0,1.761,2.6,6.39,6.39,0,0,0,.671.734l.046.04Z" transform="translate(-14 -7)" fill="#343e47"/>
</svg>
