<svg id="crow_ontwikkeling" data-name="crow ontwikkeling" xmlns="http://www.w3.org/2000/svg" width="29.808" height="25" viewBox="0 0 29.808 25">
  <path id="crow_statistieken1" data-name="crow statistieken1" d="M27.308,28.308a.962.962,0,0,1,.962.962v4.808a.962.962,0,0,1-1.923,0V29.269A.962.962,0,0,1,27.308,28.308Zm5.769-3.846a.962.962,0,0,1,.962.962v8.654a.962.962,0,0,1-1.923,0V25.423A.962.962,0,0,1,33.077,24.462Zm5.769-3.846a.962.962,0,0,1,.962.962v12.5a.962.962,0,0,1-1.923,0v-12.5A.962.962,0,0,1,38.846,20.615ZM18.173,36a2.4,2.4,0,1,1,2.4-2.4A2.4,2.4,0,0,1,18.173,36Zm-6.25-7.692a1.923,1.923,0,1,1,1.923-1.923A1.923,1.923,0,0,1,11.923,28.308Zm9.615-10.114a1.874,1.874,0,1,1,2-1.869A1.94,1.94,0,0,1,21.538,18.193Zm0,7.829c-1.713,0-5.769-6.848-5.769-9.558A5.622,5.622,0,0,1,21.538,11a5.622,5.622,0,0,1,5.769,5.464c0,2.71-4.056,9.558-5.769,9.558Zm.385-2.559A19.79,19.79,0,0,0,23.455,21.2a12.5,12.5,0,0,0,1.93-4.74,3.7,3.7,0,0,0-3.846-3.541,3.7,3.7,0,0,0-3.846,3.541,12.509,12.509,0,0,0,1.93,4.74,20.009,20.009,0,0,0,1.531,2.259c.142.176.272.325.386.443.113-.118.243-.267.385-.443Z" transform="translate(-10 -11)" fill="#15aeef"/>
</svg>
