<svg xmlns="http://www.w3.org/2000/svg" xmlns:xlink="http://www.w3.org/1999/xlink" width="22.215" height="23.206" viewBox="0 0 22.215 23.206">
  <defs>
    <clipPath id="clip-path">
      <rect id="Rectangle_81" data-name="Rectangle 81" width="22.215" height="23.206" fill="none" stroke="#15aeef" stroke-width="1.5"/>
    </clipPath>
  </defs>
  <g id="Group_352" data-name="Group 352" clip-path="url(#clip-path)">
    <path id="Path_49" data-name="Path 49" d="M17.847,11.711l-1.622-.937a7.334,7.334,0,0,0,0-2.673l1.622-.937a.46.46,0,0,0,.209-.533,9.482,9.482,0,0,0-2.083-3.6.458.458,0,0,0-.563-.088l-1.622.937a7.185,7.185,0,0,0-2.315-1.336V.674a.456.456,0,0,0-.358-.445,9.571,9.571,0,0,0-4.158,0A.456.456,0,0,0,6.6.674V2.547A7.412,7.412,0,0,0,4.285,3.884L2.667,2.947a.452.452,0,0,0-.563.088,9.425,9.425,0,0,0-2.083,3.6.455.455,0,0,0,.209.533l1.622.937a7.334,7.334,0,0,0,0,2.673L.23,11.715a.46.46,0,0,0-.209.533A9.482,9.482,0,0,0,2.1,15.85a.458.458,0,0,0,.563.088L4.289,15A7.185,7.185,0,0,0,6.6,16.337V18.21a.456.456,0,0,0,.358.445,9.571,9.571,0,0,0,4.158,0,.456.456,0,0,0,.358-.445V16.337A7.412,7.412,0,0,0,13.792,15l1.622.937a.452.452,0,0,0,.563-.088,9.425,9.425,0,0,0,2.083-3.6.47.47,0,0,0-.213-.537m-8.81.773a3.046,3.046,0,1,1,3.046-3.046,3.05,3.05,0,0,1-3.046,3.046" transform="translate(2.068 2.161)" fill="none" stroke="#000" stroke-width="1.5"/>
  </g>
</svg>
