<svg id="crow_verhuringen" data-name="crow verhuringen" xmlns="http://www.w3.org/2000/svg" width="28.906" height="25" viewBox="0 0 28.906 25">
  <ellipse id="Ellipse_193" data-name="Ellipse 193" cx="1.627" cy="1.519" rx="1.627" ry="1.519" transform="translate(3.06 15.307)" fill="#343e47"/>
  <path id="Path_36" data-name="Path 36" d="M11.688,33.705C10.3,33.705,7,28.141,7,25.94a4.568,4.568,0,0,1,4.688-4.44,4.568,4.568,0,0,1,4.688,4.44C16.375,28.141,13.08,33.705,11.688,33.705ZM12,31.627a16.08,16.08,0,0,0,1.245-1.835,10.159,10.159,0,0,0,1.568-3.852,3.01,3.01,0,0,0-3.125-2.877A3.01,3.01,0,0,0,8.563,25.94a10.164,10.164,0,0,0,1.568,3.852,16.257,16.257,0,0,0,1.244,1.835c.116.143.221.264.313.36.092-.1.2-.217.313-.36ZM31.219,21.2c-1.392,0-4.687-5.563-4.687-7.766a4.694,4.694,0,0,1,9.375,0c0,2.2-3.3,7.766-4.687,7.766Zm.313-2.078a16.079,16.079,0,0,0,1.245-1.835,10.159,10.159,0,0,0,1.568-3.852,3.136,3.136,0,0,0-6.25,0,10.164,10.164,0,0,0,1.568,3.852,16.258,16.258,0,0,0,1.244,1.835c.116.143.221.264.313.36.092-.1.2-.217.313-.36Z" transform="translate(-7 -9)" fill="#343e47"/>
  <ellipse id="Ellipse_194" data-name="Ellipse 194" cx="1.627" cy="1.519" rx="1.627" ry="1.519" transform="translate(22.591 2.807)" fill="#343e47"/>
  <path id="Path_37" data-name="Path 37" d="M12.781,37.063a.781.781,0,0,1,0-1.562H29.188a2.344,2.344,0,0,0,0-4.687H23.719a3.906,3.906,0,0,1,0-7.812h8.594a.781.781,0,0,1,0,1.563H23.719a2.344,2.344,0,0,0,0,4.688h5.469a3.906,3.906,0,0,1,0,7.813Z" transform="translate(-8.094 -12.063)" fill="#343e47"/>
</svg>
