<svg xmlns="http://www.w3.org/2000/svg" width="28.513" height="27.5" viewBox="0 0 28.513 27.5">
  <g id="Group_389" data-name="Group 389" transform="translate(1.5 1)">
    <g id="Path_62" data-name="Path 62" transform="translate(-168.064 -8496.742)" fill="none" stroke-linecap="round" stroke-linejoin="round">
      <path d="M178.931,8510.541l14.646,4.061-10.748,7.141-14.765-4.191Z" stroke="none"/>
      <path d="M 178.9308471679688 8510.541015625 L 168.0638122558594 8517.55078125 L 182.8289489746094 8521.7421875 L 193.5768737792969 8514.6015625 L 178.9308471679688 8510.541015625 M 178.9308929443359 8509.041015625 C 179.0650482177734 8509.041015625 179.1997833251953 8509.05859375 179.3315887451172 8509.095703125 L 193.9776306152344 8513.15625 C 194.5435180664062 8513.3125 194.9658050537109 8513.7861328125 195.0581970214844 8514.365234375 C 195.1505889892578 8514.9453125 194.8960571289062 8515.5263671875 194.4069366455078 8515.8505859375 L 183.6590270996094 8522.9912109375 C 183.2939300537109 8523.2333984375 182.8410034179688 8523.3056640625 182.4193267822266 8523.185546875 L 167.6541900634766 8518.994140625 C 167.0873413085938 8518.8330078125 166.6672058105469 8518.3544921875 166.5802459716797 8517.7724609375 C 166.4932708740234 8517.189453125 166.7555694580078 8516.609375 167.2507171630859 8516.2900390625 L 178.1177520751953 8509.2802734375 C 178.3624877929688 8509.123046875 178.645263671875 8509.041015625 178.9308929443359 8509.041015625 Z" stroke="none" fill="#343e47"/>
    </g>
    <g id="crow_aanbod" data-name="crow aanbod" transform="translate(-8.019 -7)" fill="#343e47">
      <path d="M 23.8894157409668 26.90722274780273 C 22.26593589782715 26.90722274780273 19.94824600219727 23.28108406066895 19.02712631225586 21.7220630645752 C 17.58123588562012 19.27482414245605 16.03622627258301 15.94570350646973 16.03622627258301 13.94141292572021 C 16.03622627258301 9.838203430175781 19.55915641784668 6.500003337860107 23.8894157409668 6.500003337860107 C 28.21967506408691 6.500003337860107 31.74260520935059 9.838203430175781 31.74260520935059 13.94141292572021 C 31.74260520935059 15.94570350646973 30.19759559631348 19.27482414245605 28.75170516967773 21.7220630645752 C 27.83059501647949 23.28108406066895 25.51289558410645 26.90722274780273 23.8894157409668 26.90722274780273 Z M 23.8894157409668 9.23016357421875 C 21.0645751953125 9.23016357421875 18.76639556884766 11.34362316131592 18.76639556884766 13.94141292572021 C 18.76639556884766 15.14563369750977 19.78485488891602 17.64328384399414 21.36104583740234 20.30448341369629 C 22.05586624145508 21.4788932800293 22.78779602050781 22.55860328674316 23.4221363067627 23.34492301940918 C 23.60935211181641 23.57711219787598 23.76388931274414 23.75359916687012 23.88862991333008 23.88698387145996 C 24.05180740356445 23.71587562561035 24.20684814453125 23.53652191162109 24.35191535949707 23.35094261169434 L 24.35436630249023 23.34780311584473 L 24.35686492919922 23.34471321105957 C 24.98851585388184 22.56259346008301 25.72041511535645 21.48321342468262 26.41774559020996 20.3054141998291 C 27.99398612976074 17.64411354064941 29.0124454498291 15.14646339416504 29.0124454498291 13.94227313995361 C 29.0124454498291 11.34400367736816 26.71426582336426 9.23016357421875 23.8894157409668 9.23016357421875 Z M 23.8894157409668 16.77540397644043 C 22.12306594848633 16.77540397644043 20.68603515625 15.41948318481445 20.68603515625 13.75282287597656 C 20.68603515625 12.085693359375 22.12306594848633 10.72938346862793 23.8894157409668 10.72938346862793 C 25.65576553344727 10.72938346862793 27.09279632568359 12.085693359375 27.09279632568359 13.75282287597656 C 27.09279632568359 15.41948318481445 25.65576553344727 16.77540397644043 23.8894157409668 16.77540397644043 Z" stroke="none"/>
      <path d="M 23.8894157409668 7.000003814697266 C 19.84083557128906 7.000003814697266 16.53622627258301 10.09439277648926 16.53622627258301 13.94141387939453 C 16.53622627258301 17.39049339294434 21.87551498413086 26.40722274780273 23.8894157409668 26.40722274780273 C 25.9033260345459 26.40722274780273 31.24260520935059 17.39049339294434 31.24260520935059 13.94141387939453 C 31.24260520935059 10.09439277648926 27.93799591064453 7.000003814697266 23.8894157409668 7.000003814697266 M 23.8894157409668 24.58277320861816 L 23.83405494689941 24.53519439697266 C 23.61691665649414 24.3422737121582 23.34268569946289 24.0429630279541 23.03298568725586 23.65886306762695 C 22.39023590087891 22.86212348937988 21.64020538330078 21.7582836151123 20.93084526062012 20.55928421020508 C 19.33735656738281 17.86888313293457 18.26639556884766 15.2684440612793 18.26639556884766 13.94141387939453 C 18.26639556884766 11.07626342773438 20.77166557312012 8.73016357421875 23.8894157409668 8.73016357421875 C 27.00716590881348 8.73016357421875 29.5124454498291 11.07539367675781 29.5124454498291 13.94227409362793 C 29.5124454498291 15.2684440612793 28.44146537780762 17.86974334716797 26.84799575805664 20.56014251708984 C 26.13862609863281 21.7582836151123 25.38860511779785 22.86299324035645 24.74584579467773 23.65886306762695 C 24.50175666809082 23.97112274169922 24.23393630981445 24.26411437988281 23.94477653503418 24.53519439697266 L 23.8894157409668 24.58277320861816 M 23.8894157409668 11.22938346862793 C 22.39715576171875 11.22938346862793 21.18603515625 12.35918235778809 21.18603515625 13.75282287597656 C 21.18603515625 15.14560317993164 22.39628601074219 16.27540397644043 23.8894157409668 16.27540397644043 C 25.38168525695801 16.27540397644043 26.59279632568359 15.14560317993164 26.59279632568359 13.75282287597656 C 26.59279632568359 12.35918235778809 25.38254547119141 11.22938346862793 23.8894157409668 11.22938346862793 M 23.8894157409668 6.000003814697266 C 28.49537658691406 6.000003814697266 32.24260711669922 9.562503814697266 32.24260711669922 13.94141387939453 C 32.24260711669922 16.04647254943848 30.66168594360352 19.47228240966797 29.18218612670898 21.97640228271484 C 28.32962608337402 23.41939353942871 27.45118522644043 24.67293357849121 26.64180564880371 25.60152435302734 C 25.56804656982422 26.83345413208008 24.69345664978027 27.40722274780273 23.8894157409668 27.40722274780273 C 23.08537483215332 27.40722274780273 22.21078491210938 26.83345413208008 21.13702583312988 25.60152435302734 C 20.32765579223633 24.67293357849121 19.44920539855957 23.41938400268555 18.59665489196777 21.97640228271484 C 17.11714553833008 19.47228240966797 15.53622436523438 16.04647254943848 15.53622436523438 13.94141387939453 C 15.53622436523438 9.562503814697266 19.28345489501953 6.000003814697266 23.8894157409668 6.000003814697266 Z M 23.89035987854004 23.12807083129883 C 23.91315460205078 23.09987258911133 23.93568992614746 23.0715274810791 23.95798492431641 23.04300308227539 L 23.96787643432617 23.03056335449219 C 24.58483505249023 22.26663208007812 25.30208587646484 21.2083625793457 25.98750495910645 20.05068206787109 C 27.73173522949219 17.10573387145996 28.5124454498291 14.86078262329102 28.5124454498291 13.94227409362793 C 28.5124454498291 11.61970329284668 26.43856620788574 9.73016357421875 23.8894157409668 9.73016357421875 C 21.34027481079102 9.73016357421875 19.26639556884766 11.61932373046875 19.26639556884766 13.94141387939453 C 19.26639556884766 14.85995292663574 20.04710578918457 17.10490417480469 21.79125595092773 20.04967308044434 C 22.47429656982422 21.20420455932617 23.19160652160645 22.26283264160156 23.8112964630127 23.03098297119141 C 23.83842277526855 23.06462860107422 23.86477851867676 23.09697914123535 23.89035987854004 23.12807083129883 Z M 23.8894157409668 10.22938346862793 C 25.93146514892578 10.22938346862793 27.59279632568359 11.80999374389648 27.59279632568359 13.75282287597656 C 27.59279632568359 15.69518280029297 25.93146514892578 17.27540397644043 23.8894157409668 17.27540397644043 C 21.84736633300781 17.27540397644043 20.18603515625 15.69518280029297 20.18603515625 13.75282287597656 C 20.18603515625 11.80999374389648 21.84736633300781 10.22938346862793 23.8894157409668 10.22938346862793 Z" stroke="none" fill="#fff"/>
    </g>
    <path id="Path_63" data-name="Path 63" d="M204.488,8452.355l2.665,4.1h2.189l1.749-4.1Z" transform="translate(-191.919 -8440.606)" fill="#fff"/>
  </g>
</svg>
