<svg id="Group_289" data-name="Group 289" xmlns="http://www.w3.org/2000/svg" width="21.047" height="15" viewBox="0 0 21.047 15">
  <path id="Path_21" data-name="Path 21" d="M8.2,26H6.439a.439.439,0,1,0,0,.879H8.2A.439.439,0,1,0,8.2,26Z" transform="translate(-3.415 -17.623)" fill="#343E47"/>
  <path id="Path_22" data-name="Path 22" d="M20.928,17.675a.439.439,0,0,0,.178-.6l-.006-.011a3.515,3.515,0,0,0-2.953-1.758,10.247,10.247,0,0,0-1.063-3.858c-.773-1.551-.514-.721-.057-1.34l.11.026h0a1.468,1.468,0,0,0,1.257-2.579,1.446,1.446,0,0,0-1.367-.242,1.2,1.2,0,0,0-1.142-.356A2.637,2.637,0,0,0,13.4,8.721H11.929a.439.439,0,0,0,0,.879h1.318a.879.879,0,0,0,.567.817,6.228,6.228,0,0,1-.36,6.213h-2.94l-.69-2.764A1.345,1.345,0,0,0,9.35,11.3c-5.431-.338-5.541-.505-6.151.088a1.493,1.493,0,0,0-.352,1.722A2.637,2.637,0,0,0,.29,15.461L.123,16.972a.879.879,0,0,0,.777.97.984.984,0,0,0,.1.005c.2,0-.057,0-.057.879A3.076,3.076,0,1,0,6.982,18c1.125.312.822,1.261,1.432,1.261H15.04a3.076,3.076,0,1,0,5.888-1.591Zm-.91-.606c-1.384,0-2.474-.211-3.181.857-.356.532-.861.461-1.393.461a2.636,2.636,0,0,1,4.574-1.318Zm-1.938,1.318a.439.439,0,1,1-.439.439A.44.44,0,0,1,18.081,18.387Zm-.228-9.2a.593.593,0,0,1-.505.105h0L17.2,9.257V8.185l.145-.035a.589.589,0,0,1,.505,1.037ZM15.884,7.842h.439V9.6h-2.2A1.758,1.758,0,0,1,15.884,7.842ZM3.779,12.034c.272-.255.1-.189,5.514.149a.466.466,0,0,1-.026.932H4.2a.624.624,0,0,1-.426-1.081Zm.242,8.99a2.2,2.2,0,0,1-2.012-3.076H3.045a1.318,1.318,0,1,0,1.951,0H6.033A2.2,2.2,0,0,1,4.02,21.024Zm.439-2.2a.439.439,0,1,1-.439-.439A.44.44,0,0,1,4.46,18.827Zm2.127-1.758H1l.167-1.511a1.758,1.758,0,0,1,1.758-1.564H8.95l.782,3.181a.439.439,0,0,0,.439.334c3.836,0,3.7.066,3.871-.185a7.075,7.075,0,0,0,.756-6.846h.813A11.557,11.557,0,0,1,17.272,15.4a3.489,3.489,0,0,0-2.707,2.983H8.709A2.368,2.368,0,0,0,6.586,17.069Zm11.494,3.955a2.2,2.2,0,0,1-2.153-1.758,1.92,1.92,0,0,0,.879-.185,1.318,1.318,0,1,0,2.25-1.134h1.037a2.2,2.2,0,0,1-2.012,3.076Z" transform="translate(-0.118 -6.934)" fill="#343E47"/>
</svg>
