<?xml version="1.0" ?><svg fill="none" height="24" viewBox="0 0 24 24" width="24" xmlns="http://www.w3.org/2000/svg"><path d="M8.74986 7.77881C6.46113 8.90053 4.91386 10.9371 4.29838 11.8582C4.10433 12.1486 4.10438 12.5181 4.29842 12.8085C5.1716 14.1153 7.91992 17.6667 12 17.6667C12.9219 17.6667 13.7758 17.4853 14.5554 17.1896" stroke="black" stroke-linecap="round"/><path d="M10.5 10.1282C10.105 10.3975 9.78607 10.7701 9.58214 11.2071C9.4225 11.5492 9.33334 11.9309 9.33334 12.3333C9.33334 13.8061 10.5273 15 12 15C12.4204 15 12.8181 14.9027 13.1718 14.7294" stroke="black"/><path d="M12 9.66663C13.4728 9.66663 14.6667 10.8605 14.6667 12.3333C14.6667 12.7802 14.5567 13.2015 14.3624 13.5715" stroke="black" stroke-linecap="round"/><path d="M6 3L17 21" stroke="black" stroke-linecap="round"/><path d="M11.5 7.01786C11.6644 7.00609 11.831 7 12 7C16.0801 7 18.8284 10.5514 19.7016 11.8582C19.8956 12.1486 19.8952 12.5188 19.7011 12.8092C19.2051 13.5514 18.1049 15.0165 16.5 16.1445" stroke="black" stroke-linecap="round"/></svg>