<?xml version="1.0" ?><!DOCTYPE svg  PUBLIC '-//W3C//DTD SVG 1.1//EN'  'http://www.w3.org/Graphics/SVG/1.1/DTD/svg11.dtd'><svg enable-background="new 0 0 50 50" height="50px" id="Layer_1" version="1.1" viewBox="0 0 50 50" width="50px" xml:space="preserve" xmlns="http://www.w3.org/2000/svg" xmlns:xlink="http://www.w3.org/1999/xlink"><rect fill="none" height="50" width="50"/><rect fill="none" height="50" width="50"/><path d="  M49,44.646c-0.494,0.174-1.091,0.296-1.846,0.296c-1.538,0-3.902-0.42-5.539-1.71c-1.637,1.29-4,1.71-5.538,1.71  s-3.901-0.42-5.539-1.71c-1.637,1.29-4,1.71-5.538,1.71s-3.901-0.42-5.539-1.71c-1.637,1.29-4,1.71-5.538,1.71  s-3.901-0.42-5.538-1.71c-1.637,1.29-4.001,1.71-5.539,1.71c-0.69,0-1.291-0.062-1.846-0.147" fill="none" stroke="#AFAFAF" stroke-linecap="round" stroke-linejoin="round" stroke-miterlimit="10" stroke-width="2"/><path d="  M49,48.646c-0.494,0.174-1.091,0.296-1.846,0.296c-1.538,0-3.902-0.42-5.539-1.71c-1.637,1.29-4,1.71-5.538,1.71  s-3.901-0.42-5.539-1.71c-1.637,1.29-4,1.71-5.538,1.71s-3.901-0.42-5.539-1.71c-1.637,1.29-4,1.71-5.538,1.71  s-3.901-0.42-5.538-1.71c-1.637,1.29-4.001,1.71-5.539,1.71c-0.69,0-1.291-0.062-1.846-0.147" fill="none" stroke="#AFAFAF" stroke-linecap="round" stroke-linejoin="round" stroke-miterlimit="10" stroke-width="2"/><path d="  M37.086,44.553c4.092-3.094,9.604-6.986,11.535-11.553c0.562-1.33,0.547-2-1.232-2H3c-1.208,0-2,0.969-2,2  c0,3.79,4.734,8.961,7.625,10.375" fill="none" stroke="#AFAFAF" stroke-linecap="round" stroke-linejoin="round" stroke-miterlimit="10" stroke-width="2"/><circle cx="30.5" cy="8.5" fill="none" r="4.5" stroke="#AFAFAF" stroke-linecap="round" stroke-linejoin="round" stroke-miterlimit="10" stroke-width="2"/><path d="  M24.184,30.675l5.044-8.021c0,0,9.14,3.675,9.927,4.04c1.022,0.472,2.849,0.708,3.549-0.808c0.699-1.516-0.334-2.845-1.414-3.36  c-0.714-0.34-16.438-7.806-16.438-7.806c-2.565-1.4-4.774-0.335-6.3,2.217L9.896,31.029" fill="none" stroke="#AFAFAF" stroke-linecap="round" stroke-linejoin="round" stroke-miterlimit="10" stroke-width="2"/><line fill="none" stroke="#AFAFAF" stroke-linecap="round" stroke-linejoin="round" stroke-miterlimit="10" stroke-width="2" x1="20.833" x2="39.388" y1="43.969" y2="26.84"/></svg>