<?xml version="1.0" ?><!DOCTYPE svg  PUBLIC '-//W3C//DTD SVG 1.1//EN'  'http://www.w3.org/Graphics/SVG/1.1/DTD/svg11.dtd'><svg enable-background="new 0 0 50 50" height="50px" id="Layer_1" version="1.1" viewBox="0 0 50 50" width="50px" xml:space="preserve" xmlns="http://www.w3.org/2000/svg" xmlns:xlink="http://www.w3.org/1999/xlink"><rect fill="none" height="50" width="50"/><rect fill="none" height="50" width="50"/><g><path d="   M4.955,39.75C4.351,40.687,4,41.803,4,43c0,3.313,2.687,6,6,6s6-2.687,6-6c0-0.414-0.042-0.818-0.122-1.209" fill="none" stroke="#000000" stroke-linecap="round" stroke-linejoin="round" stroke-miterlimit="10" stroke-width="1.9999"/></g><g><path d="   M7.477,41.375C7.175,41.844,7,42.4,7,43c0,1.656,1.344,3,3,3s3-1.344,3-3c0-0.207-0.02-0.409-0.062-0.605" fill="none" stroke="#000000" stroke-linecap="round" stroke-linejoin="round" stroke-miterlimit="10" stroke-width="2"/></g><g><path d="   M36,43c0,3.313,2.687,6,6,6s6-2.687,6-6c0-1.503-0.553-2.877-1.467-3.93" fill="none" stroke="#000000" stroke-linecap="round" stroke-linejoin="round" stroke-miterlimit="10" stroke-width="1.9999"/></g><path d="  M39.783,40.391C40.51,41.324,41.262,42.214,42,43" fill="none" stroke="#000000" stroke-linecap="round" stroke-linejoin="round" stroke-miterlimit="10" stroke-width="1.9999"/><path d="  M11.444,41.324C10.971,41.917,10.487,42.48,10,43" fill="none" stroke="#000000" stroke-linecap="round" stroke-linejoin="round" stroke-miterlimit="10" stroke-width="1.9999"/><path d="  M34,44c1.659,0,0.833-1.843,5.983-3.961C45.688,37.693,49,40.343,49,37.721c0-1.785-2.879-4.679-8.583-4.679  C35.892,33.042,32,36.574,32,41C32,43.74,33.19,44,34,44z" fill="none" stroke="#000000" stroke-linecap="round" stroke-linejoin="round" stroke-miterlimit="10" stroke-width="1.9999"/><path d="  M3.24,28.6c0,0-2.24,3.174-2.24,7.4s12.072,6,22.143,6c3.417,0,6.304-0.307,8.69-0.839" fill="none" stroke="#000000" stroke-linecap="round" stroke-linejoin="round" stroke-miterlimit="10" stroke-width="1.9999"/><path d="  M30.137,16.194C28.355,16.966,26.247,17.882,26,18c-1.641,0.788-0.539,2.359,1,2c1.276-0.297,3-2,3-2c2,5,5.351,19-6,19  c-3.777,0-7.159,0.562-5-7c0,0-0.274-1.268-1.333-1.611" fill="none" stroke="#000000" stroke-linecap="round" stroke-linejoin="round" stroke-miterlimit="10" stroke-width="1.9999"/><path d="  M40.65,32.474C40.508,31.977,40.29,31.484,40,31c-1.396-2.28-4.97-6.745-6.644-12.658" fill="none" stroke="#000000" stroke-linecap="round" stroke-linejoin="round" stroke-miterlimit="10" stroke-width="1.9999"/><path d="  M37.51,15.825c0,1.412,0.127,2.556-2.345,2.556c-2.474,0-4.477-1.145-4.477-2.556c0-1.408,2.003-2.553,4.477-2.553  C37.637,13.271,37.51,14.417,37.51,15.825z" fill="none" stroke="#000000" stroke-linecap="round" stroke-linejoin="round" stroke-miterlimit="10" stroke-width="1.9999"/><path d="  M1,27.373c0,1.021,3.958,1.636,8.912,1.636c4.955,0,9.088-0.614,9.088-1.636l0,0C19,26.354,18.206,25,17.224,25H2.776  C1.794,25,1,26.354,1,27.373L1,27.373z" fill="none" stroke="#000000" stroke-linecap="round" stroke-linejoin="round" stroke-miterlimit="10" stroke-width="2.0127"/><circle cx="42" cy="43" fill="none" r="3" stroke="#000000" stroke-linecap="round" stroke-linejoin="round" stroke-miterlimit="10" stroke-width="2"/></svg>