<?xml version="1.0" ?><!DOCTYPE svg  PUBLIC '-//W3C//DTD SVG 1.1//EN'  'http://www.w3.org/Graphics/SVG/1.1/DTD/svg11.dtd'><svg enable-background="new 0 0 50 50" height="50px" id="Layer_1" version="1.1" viewBox="0 0 50 50" width="50px" xml:space="preserve" xmlns="http://www.w3.org/2000/svg" xmlns:xlink="http://www.w3.org/1999/xlink"><rect fill="none" height="50" width="50"/><rect fill="none" height="50" width="50"/><polygon fill="none" points="  36,26 24,40 10,40 17,26 " stroke="#000000" stroke-linecap="round" stroke-linejoin="round" stroke-miterlimit="10" stroke-width="2"/><path d="  M29,19c1,1,1.016,1,6,1c0.024,0.346,1.16,8.904,5,20" fill="none" stroke="#000000" stroke-linecap="round" stroke-linejoin="round" stroke-miterlimit="10" stroke-width="2"/><line fill="none" stroke="#000000" stroke-linecap="round" stroke-linejoin="round" stroke-miterlimit="10" stroke-width="2" x1="14.673" x2="24" y1="21.365" y2="40"/><path d="M20,20.575c0,0.717-1.113,1.371-3.673,1.371c-2.653,0-5.327,2.688-5.327-0.52C11,20.499,11.209,20,12.346,20  c0.45,0,6.442,0,6.442,0C19.511,20,20,20.021,20,20.575z"/><circle cx="10" cy="40" fill="none" r="9" stroke="#000000" stroke-linecap="round" stroke-linejoin="round" stroke-miterlimit="10" stroke-width="2"/><circle cx="40" cy="40" fill="none" r="9" stroke="#000000" stroke-linecap="round" stroke-linejoin="round" stroke-miterlimit="10" stroke-width="1.9999"/></svg>