<svg id="Group_337" data-name="Group 337" xmlns="http://www.w3.org/2000/svg" xmlns:xlink="http://www.w3.org/1999/xlink" width="27.545" height="14" viewBox="0 0 27.545 14">
  <defs>
    <clipPath id="clip-path">
      <rect id="Rectangle_79" data-name="Rectangle 79" width="27.545" height="14" fill="none"/>
    </clipPath>
  </defs>
  <g id="Group_336" data-name="Group 336" clip-path="url(#clip-path)">
    <path id="Path_47" data-name="Path 47" d="M25.423,8.438,25.9,6.2a.476.476,0,0,0-.363-.564L15.626,3.272,14.82.345A.469.469,0,0,0,14.368,0h-1.86a.47.47,0,0,0,0,.939h1.5l.632,2.3H7.8V2.191H9a.47.47,0,0,0,0-.939H6.3a.47.47,0,0,0,0,.939h.568V3.513L5.743,5.742a4.237,4.237,0,0,0-1.479-.27v0A4.262,4.262,0,1,0,8.5,10.21h8.052l.17.619a.476.476,0,0,0,.459.35h4.729a2.818,2.818,0,1,0,3.514-2.74M7.339,4.646l2.706,4.614H8.5a4.265,4.265,0,0,0-1.92-3.1ZM6.158,7.007A3.323,3.323,0,0,1,7.547,9.259H5.028Zm-1.9,6.052A3.323,3.323,0,1,1,5.319,6.585L3.844,9.524a.469.469,0,0,0,.393.678.481.481,0,0,0,.088.008H7.547a3.327,3.327,0,0,1-3.285,2.848m6.871-3.8L8.148,4.168h6.742l1.4,5.091Zm4.782-4.95,8.958,2.154-.807,3.764H17.542Zm8.811,8.726a1.869,1.869,0,0,1-1.866-1.856h1.591a.476.476,0,0,0,.465-.376l.307-1.432a1.866,1.866,0,0,1-.5,3.664" transform="translate(0)" fill="#343E47"/>
  </g>
</svg>
