<svg xmlns="http://www.w3.org/2000/svg" width="17.507" height="20.008" viewBox="0 0 17.507 20.008">
  <path id="calendar-alt" d="M5.784,11.255H4.22a.47.47,0,0,1-.469-.469V9.222a.47.47,0,0,1,.469-.469H5.784a.47.47,0,0,1,.469.469v1.563A.47.47,0,0,1,5.784,11.255ZM10,10.786V9.222a.47.47,0,0,0-.469-.469H7.972a.47.47,0,0,0-.469.469v1.563a.47.47,0,0,0,.469.469H9.535A.47.47,0,0,0,10,10.786Zm3.752,0V9.222a.47.47,0,0,0-.469-.469H11.723a.47.47,0,0,0-.469.469v1.563a.47.47,0,0,0,.469.469h1.563A.47.47,0,0,0,13.756,10.786ZM10,14.537V12.974a.47.47,0,0,0-.469-.469H7.972a.47.47,0,0,0-.469.469v1.563a.47.47,0,0,0,.469.469H9.535A.47.47,0,0,0,10,14.537Zm-3.752,0V12.974a.47.47,0,0,0-.469-.469H4.22a.47.47,0,0,0-.469.469v1.563a.47.47,0,0,0,.469.469H5.784A.47.47,0,0,0,6.253,14.537Zm7.5,0V12.974a.47.47,0,0,0-.469-.469H11.723a.47.47,0,0,0-.469.469v1.563a.47.47,0,0,0,.469.469h1.563A.47.47,0,0,0,13.756,14.537Zm3.752-10.16V18.132a1.876,1.876,0,0,1-1.876,1.876H1.876A1.876,1.876,0,0,1,0,18.132V4.377A1.876,1.876,0,0,1,1.876,2.5H3.752V.469A.47.47,0,0,1,4.22,0H5.784a.47.47,0,0,1,.469.469V2.5h5V.469A.47.47,0,0,1,11.723,0h1.563a.47.47,0,0,1,.469.469V2.5h1.876A1.876,1.876,0,0,1,17.507,4.377ZM15.631,17.9V6.253H1.876V17.9a.235.235,0,0,0,.234.234H15.4A.235.235,0,0,0,15.631,17.9Z" fill="#343e47"/>
</svg>
