<svg xmlns="http://www.w3.org/2000/svg" width="13.492" height="15.8" viewBox="0 0 13.492 15.8">
  <g id="delete-object" transform="translate(-2.1 -1.1)">
    <path id="Path_108" data-name="Path 108" d="M3.5,3.5l.721,11.538a1.158,1.158,0,0,0,1.154,1.154H12.01a1.161,1.161,0,0,0,1.154-1.154L13.885,3.5" transform="translate(0.154 0.308)" fill="none" stroke="#b2b2b2" stroke-linecap="round" stroke-linejoin="round" stroke-width="0.8"/>
    <path id="Path_109" data-name="Path 109" d="M2.5,3.5h0Z" transform="translate(0 0.308)" fill="none"/>
    <path id="Path_110" data-name="Path 110" d="M2.5,3.5H15.192" transform="translate(0 0.308)" fill="none" stroke="#b2b2b2" stroke-linecap="round" stroke-width="0.8"/>
    <path id="Path_111" data-name="Path 111" d="M6.038,3.808V2.365A.863.863,0,0,1,6.9,1.5H9.788a.863.863,0,0,1,.865.865V3.808M8.346,6.115v8.077M5.75,6.115l.288,8.077m4.9-8.077-.288,8.077" transform="translate(0.5 0)" fill="none" stroke="#b2b2b2" stroke-linecap="round" stroke-linejoin="round" stroke-width="0.8"/>
  </g>
</svg>
