<svg xmlns="http://www.w3.org/2000/svg" width="22.475" height="14" viewBox="0 0 22.475 14">
  <path id="Path_34" data-name="Path 34" d="M12.316,22.558a4.237,4.237,0,0,1,1.479.27L14.915,20.6v-2.1h-.568a.469.469,0,1,1,0-.939h2.7a.469.469,0,1,1,0,.939H15.854v1.826h8.134l-.632-2.3h-1.5a.469.469,0,0,1,0-.939h1.86a.469.469,0,0,1,.452.345l1.429,5.188a4.253,4.253,0,1,1-.905.247l-.316-1.147-5.108,5.426a.46.46,0,0,1-.053.037.482.482,0,0,1-.052.046.385.385,0,0,1-.036.015.325.325,0,0,1-.037.015.469.469,0,0,1-.164.034H16.551a4.262,4.262,0,1,1-4.235-4.732ZM22.941,26.82a3.348,3.348,0,1,0,2.9-3.294l.873,3.17a.469.469,0,0,1-.328.577.464.464,0,0,1-.125.017.47.47,0,0,1-.452-.345l-.873-3.171A3.328,3.328,0,0,0,22.941,26.82Zm-6.39-.469H18.1l-2.709-4.619-.761,1.517A4.265,4.265,0,0,1,16.551,26.351ZM14.21,24.093l-1.133,2.258H15.6A3.323,3.323,0,0,0,14.21,24.093ZM16.2,21.255l2.807,4.787,4.507-4.787Zm-3.887,8.889A3.327,3.327,0,0,0,15.6,27.289H12.316a.469.469,0,0,1-.42-.679l1.475-2.939a3.323,3.323,0,1,0-1.055,6.473Z" transform="translate(-8.053 -17.083)" fill="#343E47"/>
</svg>
