<svg id="Group_450" data-name="Group 450" xmlns="http://www.w3.org/2000/svg" xmlns:xlink="http://www.w3.org/1999/xlink" width="14.219" height="25" viewBox="0 0 14.219 25">
  <defs>
    <clipPath id="clip-path">
      <rect id="Rectangle_98" data-name="Rectangle 98" width="14.219" height="25" fill="#343e47"/>
    </clipPath>
  </defs>
  <g id="Group_403" data-name="Group 403" clip-path="url(#clip-path)">
    <path id="Path_75" data-name="Path 75" d="M10.492,130.984a.83.83,0,0,1-.744-.462l-2.906-5.874-2.275-2.909a.828.828,0,0,1-.061-.089,4.609,4.609,0,0,1-.641-2.343v-5.5a9.78,9.78,0,0,0-2.2,2.873v3.663a.83.83,0,1,1-1.659,0v-3.864a.83.83,0,0,1,.088-.371,15.05,15.05,0,0,1,1.286-2.059c1.127-1.5,2.244-2.264,3.32-2.264h.813a2.915,2.915,0,0,1,2.915,2.915V124.1l2.812,5.684a.83.83,0,0,1-.743,1.2M5.908,120.762l.855,1.093V114.7a1.258,1.258,0,0,0-1.239-1.256v5.867a2.948,2.948,0,0,0,.385,1.455M3.04,130.778a.83.83,0,0,1-.685-1.3l2.773-4.063a.83.83,0,1,1,1.371.935l-2.773,4.063a.829.829,0,0,1-.686.362M13.389,120.2a.826.826,0,0,1-.455-.136l-3.428-2.252a.83.83,0,0,1,.911-1.387l3.428,2.252a.83.83,0,0,1-.456,1.523" transform="translate(0 -105.984)" fill="#343e47"/>
    <path id="Path_76" data-name="Path 76" d="M95.922,5.524a2.762,2.762,0,1,1,2.762-2.762,2.765,2.765,0,0,1-2.762,2.762m0-3.864a1.1,1.1,0,1,0,1.1,1.1,1.1,1.1,0,0,0-1.1-1.1" transform="translate(-88.329 0)" fill="#343e47"/>
  </g>
</svg>
