<svg id="Group_443" data-name="Group 443" xmlns="http://www.w3.org/2000/svg" xmlns:xlink="http://www.w3.org/1999/xlink" width="12.092" height="21.261" viewBox="0 0 12.092 21.261">
  <defs>
    <clipPath id="clip-path">
      <rect id="Rectangle_98" data-name="Rectangle 98" width="12.092" height="21.261" fill="#15aeef"/>
    </clipPath>
  </defs>
  <g id="Group_403" data-name="Group 403" clip-path="url(#clip-path)">
    <path id="Path_75" data-name="Path 75" d="M8.922,128.111a.706.706,0,0,1-.633-.393l-2.471-5-1.935-2.474a.7.7,0,0,1-.052-.076,3.92,3.92,0,0,1-.545-1.993V113.5a8.318,8.318,0,0,0-1.875,2.443v3.116a.706.706,0,1,1-1.411,0v-3.286a.705.705,0,0,1,.074-.316,12.8,12.8,0,0,1,1.094-1.751c.958-1.278,1.908-1.926,2.824-1.926h.692a2.479,2.479,0,0,1,2.479,2.479v8l2.392,4.834a.706.706,0,0,1-.632,1.019m-3.9-8.693.727.929v-6.088A1.069,1.069,0,0,0,4.7,113.191v4.989a2.507,2.507,0,0,0,.327,1.238m-2.44,8.518a.706.706,0,0,1-.582-1.1l2.358-3.456a.706.706,0,1,1,1.166.8l-2.358,3.456a.705.705,0,0,1-.583.308m8.8-8.994a.7.7,0,0,1-.387-.116l-2.915-1.915a.706.706,0,0,1,.775-1.18l2.915,1.915a.706.706,0,0,1-.388,1.3" transform="translate(0 -106.851)" fill="#15aeef"/>
    <path id="Path_76" data-name="Path 76" d="M95.509,4.7a2.349,2.349,0,1,1,2.349-2.349A2.351,2.351,0,0,1,95.509,4.7m0-3.286a.938.938,0,1,0,.938.938.939.939,0,0,0-.938-.938" transform="translate(-89.052 0)" fill="#15aeef"/>
  </g>
</svg>
