<svg id="Group_339" data-name="Group 339" xmlns="http://www.w3.org/2000/svg" xmlns:xlink="http://www.w3.org/1999/xlink" width="26.36" height="26.074" viewBox="0 0 26.36 26.074">
  <defs>
    <clipPath id="clip-path">
      <rect id="Rectangle_80" data-name="Rectangle 80" width="26.36" height="26.074" fill="#343e47"/>
    </clipPath>
  </defs>
  <g id="Group_338" data-name="Group 338" clip-path="url(#clip-path)">
    <path id="Path_48" data-name="Path 48" d="M26.105,3.805,21.189,8.722a.78.78,0,0,1-.073.049.862.862,0,0,1-1.443-.086L17.942,5.665a.875.875,0,0,1,.317-1.191.863.863,0,0,1,1.183.319l1.173,2.045,4.263-4.262a.869.869,0,1,1,1.229,1.229ZM15.263,16.057l-2.778-2.273c-.386-.151-.751-.428-.751-.747l.007-.081a1.181,1.181,0,0,1,.027-.35l.4-5.218a.869.869,0,1,1,1.738,0l.363,4.724,2.222,2.716a.869.869,0,1,1-1.229,1.229Zm.752-13.922,0,.012a11.408,11.408,0,1,0,8.185,9.2l.021,0a.868.868,0,1,1,1.7-.252c0,.012,0,.023,0,.035A13.029,13.029,0,1,1,13.037,0a12.925,12.925,0,0,1,3.224.422.856.856,0,0,1,.258.059.869.869,0,0,1-.5,1.654Z" fill="#343e47"/>
  </g>
</svg>
