<svg xmlns="http://www.w3.org/2000/svg" width="10" height="10" viewBox="0 0 10 10">
  <path id="times-circle" d="M61.546,53.76l-2.953,2.953,2.953,2.953a.57.57,0,0,1,0,.807l-1.073,1.073a.57.57,0,0,1-.807,0l-2.953-2.953L53.76,61.546a.57.57,0,0,1-.807,0l-1.073-1.073a.57.57,0,0,1,0-.807l2.953-2.953L51.881,53.76a.57.57,0,0,1,0-.807l1.073-1.073a.57.57,0,0,1,.807,0l2.953,2.953,2.953-2.953a.57.57,0,0,1,.807,0l1.073,1.073A.57.57,0,0,1,61.546,53.76Z" transform="translate(-51.713 -51.713)" fill="#343e47"/>
</svg>
